<mxfile host="65bd71144e">
    <diagram id="6RLqJir3TOEXzAZQIvNT" name="第 1 页">
        <mxGraphModel dx="805" dy="682" grid="1" gridSize="10" guides="1" tooltips="1" connect="1" arrows="1" fold="1" page="1" pageScale="1" pageWidth="827" pageHeight="1169" math="0" shadow="0">
            <root>
                <mxCell id="0"/>
                <mxCell id="1" parent="0"/>
                <mxCell id="2" value="Spring" style="swimlane;fontFamily=微软雅黑;fontSize=14;strokeWidth=2;" vertex="1" parent="1">
                    <mxGeometry x="280" y="330" width="430" height="430" as="geometry"/>
                </mxCell>
                <mxCell id="3" value="" style="rounded=0;whiteSpace=wrap;html=1;strokeColor=#d6b656;fontFamily=微软雅黑;fontSize=14;strokeWidth=2;fillColor=#fff2cc;" vertex="1" parent="2">
                    <mxGeometry x="260" y="50" width="130" height="350" as="geometry"/>
                </mxCell>
                <mxCell id="4" style="edgeStyle=orthogonalEdgeStyle;rounded=0;orthogonalLoop=1;jettySize=auto;html=1;entryX=0;entryY=0.06;entryDx=0;entryDy=0;strokeWidth=2;dashed=1;" edge="1" parent="2" source="6" target="3">
                    <mxGeometry relative="1" as="geometry"/>
                </mxCell>
                <mxCell id="5" value="反射" style="edgeLabel;html=1;align=center;verticalAlign=middle;resizable=0;points=[];fontSize=14;fontFamily=微软雅黑;" vertex="1" connectable="0" parent="4">
                    <mxGeometry x="0.0735" y="1" relative="1" as="geometry">
                        <mxPoint as="offset"/>
                    </mxGeometry>
                </mxCell>
                <mxCell id="6" value="&lt;font style=&quot;font-size: 13px&quot;&gt;读取配置文件并解析&lt;br&gt;BeanDefinition&lt;/font&gt;" style="rounded=0;whiteSpace=wrap;html=1;strokeColor=#323232;fontFamily=微软雅黑;fontSize=14;strokeWidth=2;" vertex="1" parent="2">
                    <mxGeometry x="30" y="350" width="120" height="60" as="geometry"/>
                </mxCell>
                <mxCell id="7" value="" style="shape=flexArrow;endArrow=classic;html=1;strokeWidth=2;width=17.5;endSize=8.366666666666667;endWidth=37.91666666666667;" edge="1" parent="2">
                    <mxGeometry width="50" height="50" relative="1" as="geometry">
                        <mxPoint x="80" y="350" as="sourcePoint"/>
                        <mxPoint x="80" y="60" as="targetPoint"/>
                    </mxGeometry>
                </mxCell>
                <mxCell id="8" value="&lt;font style=&quot;font-size: 11px&quot;&gt;BeanFactoryPostProcessor&lt;/font&gt;" style="rounded=0;whiteSpace=wrap;html=1;fontFamily=微软雅黑;fontSize=14;strokeWidth=2;" vertex="1" parent="2">
                    <mxGeometry x="10" y="100" width="150" height="30" as="geometry"/>
                </mxCell>
                <mxCell id="9" value="&lt;font style=&quot;font-size: 11px&quot;&gt;BeanFactoryPostProcessor&lt;/font&gt;" style="rounded=0;whiteSpace=wrap;html=1;fontFamily=微软雅黑;fontSize=14;strokeWidth=2;" vertex="1" parent="2">
                    <mxGeometry x="10" y="150" width="150" height="30" as="geometry"/>
                </mxCell>
                <mxCell id="10" value="&lt;font style=&quot;font-size: 11px&quot;&gt;BeanFactoryPostProcessor&lt;/font&gt;" style="rounded=0;whiteSpace=wrap;html=1;fontFamily=微软雅黑;fontSize=14;strokeWidth=2;" vertex="1" parent="2">
                    <mxGeometry x="10" y="200" width="150" height="30" as="geometry"/>
                </mxCell>
                <mxCell id="11" value="实例化对象" style="rounded=0;whiteSpace=wrap;html=1;fontFamily=微软雅黑;fontSize=14;strokeWidth=2;" vertex="1" parent="2">
                    <mxGeometry x="275" y="60" width="100" height="40" as="geometry"/>
                </mxCell>
                <mxCell id="12" value="&lt;font&gt;&lt;font style=&quot;font-size: 13px&quot;&gt;BeanProcessor&lt;/font&gt;&lt;br&gt;&lt;font size=&quot;1&quot;&gt;前置属性&lt;/font&gt;&lt;br&gt;&lt;/font&gt;" style="rounded=0;whiteSpace=wrap;html=1;fontFamily=微软雅黑;fontSize=14;strokeWidth=2;" vertex="1" parent="2">
                    <mxGeometry x="275" y="145" width="100" height="40" as="geometry"/>
                </mxCell>
                <mxCell id="13" value="设置对象属性" style="edgeStyle=orthogonalEdgeStyle;rounded=0;orthogonalLoop=1;jettySize=auto;html=1;strokeWidth=2;" edge="1" parent="2" source="11" target="12">
                    <mxGeometry relative="1" as="geometry"/>
                </mxCell>
                <mxCell id="14" value="&lt;font style=&quot;font-size: 9px&quot;&gt;执行初始化方法&lt;br&gt;&lt;/font&gt;" style="rounded=0;whiteSpace=wrap;html=1;fontFamily=微软雅黑;fontSize=14;strokeWidth=2;" vertex="1" parent="2">
                    <mxGeometry x="275" y="215" width="100" height="40" as="geometry"/>
                </mxCell>
                <mxCell id="15" value="" style="edgeStyle=orthogonalEdgeStyle;rounded=0;orthogonalLoop=1;jettySize=auto;html=1;" edge="1" parent="2" source="12" target="14">
                    <mxGeometry relative="1" as="geometry"/>
                </mxCell>
                <mxCell id="16" value="&lt;font style=&quot;font-size: 11px&quot;&gt;执行&lt;br&gt;BeanPostProcessor&lt;br&gt;后置属性&lt;br&gt;&lt;/font&gt;" style="rounded=0;whiteSpace=wrap;html=1;fontFamily=微软雅黑;fontSize=14;strokeWidth=2;" vertex="1" parent="2">
                    <mxGeometry x="272.5" y="290" width="105" height="50" as="geometry"/>
                </mxCell>
                <mxCell id="17" value="" style="edgeStyle=orthogonalEdgeStyle;rounded=0;orthogonalLoop=1;jettySize=auto;html=1;" edge="1" parent="2" source="14" target="16">
                    <mxGeometry relative="1" as="geometry"/>
                </mxCell>
                <mxCell id="18" style="edgeStyle=orthogonalEdgeStyle;rounded=0;orthogonalLoop=1;jettySize=auto;html=1;entryX=0;entryY=0.4;entryDx=0;entryDy=0;strokeWidth=2;" edge="1" parent="1" source="19" target="6">
                    <mxGeometry relative="1" as="geometry"/>
                </mxCell>
                <mxCell id="19" value="yml" style="rounded=0;whiteSpace=wrap;html=1;fontFamily=微软雅黑;fontSize=14;strokeWidth=2;" vertex="1" parent="1">
                    <mxGeometry x="60" y="650" width="100" height="40" as="geometry"/>
                </mxCell>
                <mxCell id="20" style="edgeStyle=orthogonalEdgeStyle;rounded=0;orthogonalLoop=1;jettySize=auto;html=1;entryX=0;entryY=0.4;entryDx=0;entryDy=0;strokeWidth=2;" edge="1" parent="1" source="21" target="6">
                    <mxGeometry relative="1" as="geometry"/>
                </mxCell>
                <mxCell id="21" value="xml" style="rounded=0;whiteSpace=wrap;html=1;fontFamily=微软雅黑;fontSize=14;strokeWidth=2;" vertex="1" parent="1">
                    <mxGeometry x="60" y="710" width="100" height="40" as="geometry"/>
                </mxCell>
                <mxCell id="22" value="&lt;font style=&quot;font-size: 12px&quot; color=&quot;#000000&quot;&gt;此时没有进行属性值的设置&lt;/font&gt;" style="shape=note;whiteSpace=wrap;html=1;backgroundOutline=1;darkOpacity=0.05;fillColor=#ffffaa;strokeColor=#cdcd83;size=20;fontFamily=微软雅黑;fontSize=14;strokeWidth=2;" vertex="1" parent="1">
                    <mxGeometry x="290" y="780" width="160" height="50" as="geometry"/>
                </mxCell>
                <mxCell id="23" value="销毁操作" style="whiteSpace=wrap;html=1;rounded=0;fontFamily=微软雅黑;fontSize=14;strokeWidth=2;" vertex="1" parent="1">
                    <mxGeometry x="545" y="800" width="120" height="60" as="geometry"/>
                </mxCell>
                <mxCell id="24" value="" style="edgeStyle=orthogonalEdgeStyle;rounded=0;orthogonalLoop=1;jettySize=auto;html=1;" edge="1" parent="1" source="16" target="23">
                    <mxGeometry relative="1" as="geometry"/>
                </mxCell>
            </root>
        </mxGraphModel>
    </diagram>
</mxfile>